HIERARCHY
ROOT hip
{
	OFFSET	0.00  0.00  0.00 
	CHANNELS 6 Xposition Yposition Zposition Xrotation Zrotation Yrotation
	JOINT waist
	{
		OFFSET	0.000000 2.191865 -0.079388
		CHANNELS 3 Xrotation Zrotation Yrotation
		JOINT abdomen
		{
			OFFSET	0.000000 2.770984 0.119082
			CHANNELS 3 Xrotation Zrotation Yrotation
			JOINT chest
			{
				OFFSET	0.000000 2.879627 -0.290598
				CHANNELS 3 Xrotation Zrotation Yrotation
				JOINT neck
				{
					OFFSET	0.000000 12.342733 -1.613748
					CHANNELS 3 Xrotation Zrotation Yrotation
					JOINT head
					{
						OFFSET	0.000000 4.485597 1.807195
						CHANNELS 3 Xrotation Zrotation Yrotation
						End Site
						{
							OFFSET 0.000000 7.191734 2.024398
						}
					}
				}
				JOINT lCollar
				{
					OFFSET	1.858774 10.237258 -1.915852
					CHANNELS 3 Zrotation Yrotation Xrotation
					JOINT lShldr
					{
						OFFSET	6.103279 0.000102 -0.038601
						CHANNELS 3 Zrotation Yrotation Xrotation
						JOINT lForeArm
						{
							OFFSET	10.574100 -0.365985 -0.655940
							CHANNELS 3 Zrotation Yrotation Xrotation
							JOINT lHand
							{
								OFFSET	13.213392 -0.641131 0.276866
								CHANNELS 3 Zrotation Yrotation Xrotation
								JOINT lThumb1
								{
									OFFSET	1.920964 -1.225712 1.722395
									CHANNELS 3 Zrotation Yrotation Xrotation
									JOINT lThumb2
									{
										OFFSET	0.248544 -0.143036 0.768265
										CHANNELS 3 Zrotation Yrotation Xrotation
										JOINT lThumb3
										{
											OFFSET	0.628484 -0.225174 0.508305
											CHANNELS 3 Zrotation Yrotation Xrotation
											End Site
											{
												OFFSET 0.831712 -0.207978 0.609962
											}
										}
									}
								}
								JOINT lIndex1
								{
									OFFSET	5.093442 -0.710319 1.829884
									CHANNELS 3 Zrotation Yrotation Xrotation
									JOINT lIndex2
									{
										OFFSET	0.889470 -0.051998 0.127073
										CHANNELS 3 Zrotation Yrotation Xrotation
										JOINT lIndex3
										{
											OFFSET	0.889570 -0.155981 0.127073
											CHANNELS 3 Zrotation Yrotation Xrotation
											End Site
											{
												OFFSET 0.797115 -0.294470 0.076252
											}
										}
									}
								}
								JOINT lMid1
								{
									OFFSET	5.154641 -0.519844 0.864111
									CHANNELS 3 Zrotation Yrotation Xrotation
									JOINT lMid2
									{
										OFFSET	0.928821 -0.051992 0.050831
										CHANNELS 3 Zrotation Yrotation Xrotation
										JOINT lMid3
										{
											OFFSET	0.984253 -0.311865 0.050831
											CHANNELS 3 Zrotation Yrotation Xrotation
											End Site
											{
												OFFSET 0.779717 -0.606438 -0.050831
											}
										}
									}
								}
								JOINT lRing1
								{
									OFFSET	4.924408 -0.754930 -0.235503
									CHANNELS 3 Zrotation Yrotation Xrotation
									JOINT lRing2
									{
										OFFSET	0.981624 -0.036924 -0.108278
										CHANNELS 3 Zrotation Yrotation Xrotation
										JOINT lRing3
										{
											OFFSET	0.805613 -0.205247 -0.041717
											CHANNELS 3 Zrotation Yrotation Xrotation
											End Site
											{
												OFFSET 0.667431 -0.470481 -0.035991
											}
										}
									}
								}
								JOINT lPinky1
								{
									OFFSET	4.535460 -0.816635 -1.006206
									CHANNELS 3 Zrotation Yrotation Xrotation
									JOINT lPinky2
									{
										OFFSET	0.690596 -0.064334 -0.168800
										CHANNELS 3 Zrotation Yrotation Xrotation
										JOINT lPinky3
										{
											OFFSET	0.598039 -0.111176 -0.071973
											CHANNELS 3 Zrotation Yrotation Xrotation
											End Site
											{
												OFFSET 0.422025 -0.290925 -0.035981
											}
										}
									}
								}
							}
						}
					}
				}
				JOINT rCollar
				{
					OFFSET	-1.858774 10.237258 -1.915852
					CHANNELS 3 Zrotation Yrotation Xrotation
					JOINT rShldr
					{
						OFFSET	-6.103279 0.000102 -0.038601
						CHANNELS 3 Zrotation Yrotation Xrotation
						JOINT rForeArm
						{
							OFFSET	-10.574100 -0.365985 -0.655940
							CHANNELS 3 Zrotation Yrotation Xrotation
							JOINT rHand
							{
								OFFSET	-13.213392 -0.641131 0.276866
								CHANNELS 3 Zrotation Yrotation Xrotation
								JOINT rIndex1
								{
									OFFSET	-5.093442 -0.710319 1.829884
									CHANNELS 3 Zrotation Yrotation Xrotation
									JOINT rIndex2
									{
										OFFSET	-0.889470 -0.051998 0.127073
										CHANNELS 3 Zrotation Yrotation Xrotation
										JOINT rIndex3
										{
											OFFSET	-0.889570 -0.155981 0.127073
											CHANNELS 3 Zrotation Yrotation Xrotation
											End Site
											{
												OFFSET -0.797115 -0.294470 0.076252
											}
										}
									}
								}
								JOINT rThumb1
								{
									OFFSET	-1.920964 -1.225712 1.722395
									CHANNELS 3 Zrotation Yrotation Xrotation
									JOINT rThumb2
									{
										OFFSET	-0.248544 -0.143036 0.768265
										CHANNELS 3 Zrotation Yrotation Xrotation
										JOINT rThumb3
										{
											OFFSET	-0.628484 -0.225174 0.508305
											CHANNELS 3 Zrotation Yrotation Xrotation
											End Site
											{
												OFFSET -0.831712 -0.207978 0.609962
											}
										}
									}
								}
								JOINT rMid1
								{
									OFFSET	-5.154641 -0.519844 0.864111
									CHANNELS 3 Zrotation Yrotation Xrotation
									JOINT rMid2
									{
										OFFSET	-0.928821 -0.051992 0.050831
										CHANNELS 3 Zrotation Yrotation Xrotation
										JOINT rMid3
										{
											OFFSET	-0.984253 -0.311865 0.050831
											CHANNELS 3 Zrotation Yrotation Xrotation
											End Site
											{
												OFFSET -0.779717 -0.606438 -0.050831
											}
										}
									}
								}
								JOINT rRing1
								{
									OFFSET	-4.924408 -0.754930 -0.235503
									CHANNELS 3 Zrotation Yrotation Xrotation
									JOINT rRing2
									{
										OFFSET	-0.981624 -0.036924 -0.108278
										CHANNELS 3 Zrotation Yrotation Xrotation
										JOINT rRing3
										{
											OFFSET	-0.805613 -0.205247 -0.041717
											CHANNELS 3 Zrotation Yrotation Xrotation
											End Site
											{
												OFFSET -0.667431 -0.470481 -0.035991
											}
										}
									}
								}
								JOINT rPinky1
								{
									OFFSET	-4.535460 -0.816635 -1.006206
									CHANNELS 3 Zrotation Yrotation Xrotation
									JOINT rPinky2
									{
										OFFSET	-0.690596 -0.064334 -0.168800
										CHANNELS 3 Zrotation Yrotation Xrotation
										JOINT rPinky3
										{
											OFFSET	-0.598039 -0.111176 -0.071973
											CHANNELS 3 Zrotation Yrotation Xrotation
											End Site
											{
												OFFSET -0.422025 -0.290925 -0.035981
											}
										}
									}
								}
							}
						}
					}
				}
			}
		}
	}
	JOINT lThigh
	{
		OFFSET	5.761895 -0.730553 0.000101
		CHANNELS 3 Xrotation Zrotation Yrotation
		JOINT lShin
		{
			OFFSET	-1.171020 -18.459274 1.627449
			CHANNELS 3 Xrotation Zrotation Yrotation
			JOINT lFoot
			{
				OFFSET	-0.883715 -16.872776 -3.357785
				CHANNELS 3 Xrotation Zrotation Yrotation
				JOINT lToe
				{
					OFFSET	1.287613 -2.778491 2.836049
					CHANNELS 3 Xrotation Yrotation Zrotation
					End Site
					{
						OFFSET 1.362641 -0.436631 3.828194
					}
				}
			}
		}
	}
	JOINT rThigh
	{
		OFFSET	-5.761895 -0.730553 0.000101
		CHANNELS 3 Xrotation Zrotation Yrotation
		JOINT rShin
		{
			OFFSET	1.171020 -18.459274 1.627449
			CHANNELS 3 Xrotation Zrotation Yrotation
			JOINT rFoot
			{
				OFFSET	0.883715 -16.872776 -3.357785
				CHANNELS 3 Xrotation Zrotation Yrotation
				JOINT rToe
				{
					OFFSET	-1.287613 -2.778491 2.836049
					CHANNELS 3 Xrotation Yrotation Zrotation
					End Site
					{
						OFFSET -1.362641 -0.436631 3.828194
					}
				}
			}
		}
	}
}
MOTION
Frames:     5
Frame Time: 0.033333
0.408655 36.659470 3.797924 10.351988 0.588687 15.725615 -11.504523 1.881240 -7.449824 1.413120 -0.359632 -8.825219 8.017576 0.336368 -8.669710 -2.396794 1.000929 2.092136 -13.337274 -3.474682 4.780111 11.737322 -1.830575 2.973135 -59.353760 -47.006317 -10.236322 4.258152 -71.519699 22.756905 72.918495 -3.891517 -2.986396 17.978130 15.784704 40.276363 -14.107099 -10.201385 11.591119 -13.915658 23.802435 24.418575 -74.047989 7.373336 3.365467 -80.528847 7.426008 5.835281 -80.320641 4.840087 6.389629 -73.937057 2.098958 3.953238 -83.137123 3.474561 -0.497115 -67.897705 0.694864 -2.119978 -85.612206 -16.250605 -5.468342 -75.235573 -0.542164 -2.735878 -64.726982 3.283940 0.072145 -89.138741 -22.270155 -17.666374 -81.739769 -4.076882 -7.030747 -61.400848 3.234486 -1.271225 -7.242008 -7.078534 1.401522 82.520988 -28.154285 7.969808 -2.047964 117.087753 38.919857 -54.012856 4.926679 -3.193870 -2.993549 14.194036 -4.279077 44.569191 -0.393793 4.642523 24.284414 4.074161 0.645424 -20.766680 -9.496611 48.859730 -0.718895 -9.208884 1.479528 7.648503 -17.732378 13.315259 7.419296 7.424399 0.485657 13.530169 -1.105586 -3.187724 16.080006 6.331521 -5.994280 13.611410 -1.102383 -1.237843 6.530688 -5.807116 1.132421 -8.136498 0.811815 -0.136545 11.819777 4.957906 -3.780028 -0.365877 -13.096870 2.458560 -2.678938 0.048883 0.184032 0.050172 12.332244 1.736709 32.581749 -0.695874 -6.252996 51.701778 16.276793 0.946222 -31.451363 9.093950 11.503390 -54.037857 -15.528794 -7.441458 31.440294 -5.393478 6.323773 29.082558 -6.061778 1.384657 -20.556458 -7.965215 -9.013613 
0.408655 36.667744 3.529953 10.361910 0.509581 13.546277 -10.414846 1.634355 -6.588980 3.968302 -0.486708 -8.620399 9.090423 0.396944 -7.503567 -2.508245 0.871462 1.796872 -16.204618 -3.058459 3.842340 11.532669 -1.019770 3.049629 -63.058598 -43.530155 -12.198935 -35.282131 -98.180542 44.456673 64.140541 -16.651999 -7.682843 18.184725 13.537908 52.006344 -6.789005 -2.106088 9.855532 -9.256698 24.580597 20.289198 -69.188286 11.267253 3.440850 -75.280754 9.535819 5.966187 -71.628555 3.087444 5.671865 -72.951469 7.602331 4.293077 -79.192757 4.441214 -0.180477 -62.526840 -2.495960 -4.574117 -78.548912 -7.955669 -5.213445 -81.528000 -0.966459 -2.869595 -60.813236 -0.247598 -2.375881 -79.232597 -15.731108 -16.109306 -86.208138 -4.771736 -7.169258 -50.849674 -1.248496 -4.096107 -7.521084 -6.707173 0.486505 81.925941 -23.952076 6.642952 -0.617353 114.721764 38.774944 -52.003860 4.887972 -3.119600 -1.554813 14.461267 -4.089331 43.241547 -0.401609 4.519779 24.670183 3.873047 0.750532 -20.755869 -11.108364 47.437443 -0.246022 -8.352760 2.245387 7.473108 -18.216852 13.448161 9.452555 7.587088 0.585981 14.590309 -1.184922 -3.111913 16.563803 6.184973 -5.903664 16.078403 -0.761069 -1.457338 7.725988 -5.863902 1.085686 -6.145675 0.677421 -0.152818 15.174304 4.474148 -4.503966 2.435332 -13.082067 2.119332 0.651830 -0.027717 -0.049200 -2.931692 12.583183 0.563705 41.667450 -0.267969 -6.439403 57.646370 14.421247 2.656896 -16.187420 9.094750 6.725610 -50.742901 -14.080096 -7.220830 32.787609 -5.125892 6.283974 15.451957 -6.249343 4.832521 -9.070821 -7.802291 -5.104905 
0.408655 36.611763 3.529953 10.381906 0.400772 10.858478 -8.885966 1.317793 -5.529683 7.166183 -0.583976 -8.092460 10.498301 0.447447 -6.066178 -2.648899 0.689254 1.449017 -19.480892 -2.593390 2.717654 11.249737 -0.140514 3.154899 -67.667900 -38.545174 -14.754973 -19.959301 -101.056068 41.024719 64.878204 -8.764506 -6.620372 20.680635 17.020544 49.927784 -6.764926 -3.159705 8.841248 -10.076983 21.433744 18.353168 -64.855049 5.939856 2.778562 -66.552155 8.975943 5.315229 -64.516869 4.044349 5.897967 -73.022018 4.452513 4.093228 -74.755829 4.036911 -0.316063 -57.892017 -1.936165 -4.076270 -78.386711 -7.166338 -5.200246 -79.810921 -1.072702 -2.893529 -61.469589 0.314696 -1.986539 -79.803398 -13.851698 -15.658450 -80.706932 -3.271433 -6.867051 -48.918224 -0.028951 -3.184098 -7.886455 -6.169808 -0.185017 81.109581 -18.513876 5.004531 1.500429 111.735062 39.160122 -49.501770 4.983053 -3.033193 0.256379 14.783478 -3.847140 41.590935 -0.520707 4.382593 25.119474 3.532719 0.911494 -20.667568 -13.058734 45.743374 0.306058 -7.427139 3.176554 7.251002 -18.838085 13.626969 11.947869 7.712321 0.713256 15.890369 -1.387837 -2.986222 17.175207 5.946538 -5.747615 19.078440 -0.404295 -1.720612 9.165716 -5.985260 1.044490 -3.694617 0.450340 -0.128331 19.255625 3.803578 -5.338386 5.895486 -12.974167 1.687875 4.742639 -0.103049 -0.341091 -6.629860 11.979206 -0.002327 50.311558 0.347347 -6.645259 60.850471 11.716226 5.391998 -5.728243 5.993239 2.954915 -48.461136 -12.702441 -6.656209 35.921749 -4.845272 6.421833 10.171556 -6.182011 8.949993 -10.114467 -8.026538 -5.380590 
0.408655 36.467831 3.529953 10.400268 0.296583 7.936249 -6.780450 0.985546 -4.381911 10.712417 -0.672646 -7.235412 12.167994 0.349387 -4.529453 -2.749995 0.510539 1.057773 -22.314692 -2.137681 1.524794 10.898422 0.777866 3.259718 -71.485718 -32.166279 -17.558874 -11.821445 -104.197075 39.171001 63.469940 -3.139152 -5.873027 18.822601 17.890474 43.580719 -4.941385 -2.761479 7.108254 -8.702829 19.366459 15.405234 -60.097610 1.178815 2.135869 -57.909531 7.541585 4.319623 -56.177437 4.137952 5.667635 -72.989540 1.912964 3.928786 -69.868362 3.517283 -0.511458 -52.119751 -1.943378 -3.973808 -77.881271 -5.522421 -5.170921 -78.579155 -1.070295 -2.888885 -61.558086 0.519596 -1.843089 -79.619667 -11.333177 -15.079836 -76.083855 -2.252705 -6.612587 -45.332809 0.473062 -2.699792 -8.342842 -5.358930 0.188990 80.117973 -11.810243 3.184936 4.636496 108.650414 39.379375 -46.404697 5.394158 -2.983849 2.341662 15.068214 -3.566676 39.764961 -0.939859 4.277894 25.606709 2.925324 1.173922 -20.427488 -15.044737 44.096886 0.773309 -6.698483 4.165864 6.945265 -19.558626 13.791096 14.648664 7.663533 0.859682 17.249914 -1.844303 -2.778635 17.872604 5.470809 -5.405417 22.160452 -0.236155 -1.985891 10.721049 -6.303157 1.048051 -1.035283 0.049064 0.009037 23.537701 2.859914 -6.127699 9.612115 -12.897505 1.235627 9.194207 -0.161132 -0.663911 -12.473674 11.165617 -0.456903 61.841137 1.148717 -7.252053 62.456421 8.737294 8.359816 4.891878 1.762282 -1.102051 -47.566662 -11.574738 -5.842724 41.429386 -4.605186 6.688827 11.333774 -6.261377 11.570343 -11.277907 -8.342980 -5.693653 
0.408655 36.234833 3.529953 10.416210 0.176051 4.857471 -4.547266 0.646536 -3.165196 13.763291 -0.723170 -6.103278 13.717422 0.172020 -2.902157 -2.840374 0.320852 0.639346 -24.499514 -1.647167 0.311169 10.517741 1.706027 3.364629 -73.199242 -24.670710 -20.272154 -7.013238 -107.316895 38.255920 61.052326 1.697868 -5.224027 16.702896 17.576290 37.779400 -3.218586 -2.331467 5.385102 -7.310080 17.413723 12.780266 -54.797657 -3.018894 1.482658 -49.476032 5.694911 3.116187 -47.901394 3.440718 5.028345 -71.579163 -0.384208 3.744218 -64.337036 2.981197 -0.742819 -45.791870 -2.301938 -4.093144 -76.309662 -3.743861 -5.123627 -76.229073 -0.787900 -2.805173 -61.512791 0.592959 -1.790888 -78.148773 -8.785044 -14.510873 -71.110413 -1.191476 -6.296151 -40.656055 0.639028 -2.379397 -8.828291 -4.479664 0.582711 78.879539 -4.067651 1.245729 9.218432 105.386520 40.277153 -42.961842 6.228686 -2.971645 4.731076 15.233141 -3.235280 37.791580 -1.788412 4.231758 26.043180 1.897186 1.587844 -20.064449 -16.952520 42.717434 1.039403 -6.273315 5.139688 6.536566 -20.351433 13.905480 17.463936 7.323555 1.025313 18.591589 -2.721586 -2.439604 18.573452 4.673051 -4.809165 25.158552 -0.428527 -2.237416 12.301966 -6.950001 1.134626 1.715638 -0.651384 0.354164 27.746048 1.457649 -6.769989 13.445866 -13.011966 0.814866 13.811656 -0.194717 -1.002447 -17.554684 11.129063 0.311205 71.233093 1.581705 -7.588204 63.196205 5.813938 10.648875 8.667828 1.172456 -2.383250 -46.278702 -10.262091 -4.772946 46.723507 -4.240021 6.932266 13.129301 -6.644121 10.577351 -12.221198 -8.553886 -5.932418 
